<svg width="22" height="20" viewBox="0 0 22 20" fill="none" xmlns="http://www.w3.org/2000/svg">
<path d="M11.608 1.01423L13.359 6.38863C13.5602 7.00607 14.1359 7.42394 14.7853 7.42394H20.446C20.9307 7.42394 21.1319 8.04445 20.7394 8.32884L16.1645 11.6435C15.6373 12.0254 15.4167 12.7039 15.6184 13.3229L17.3669 18.6895C17.517 19.1499 16.9903 19.5334 16.5982 19.2493L12.0126 15.9269C11.4876 15.5465 10.7775 15.5465 10.2525 15.9269L5.66693 19.2493C5.2748 19.5334 4.74815 19.1499 4.89816 18.6895L6.64674 13.3228C6.84842 12.7039 6.6278 12.0254 6.10061 11.6435L1.52573 8.32884C1.13323 8.04446 1.3344 7.42394 1.81909 7.42394H7.47985C8.12924 7.42394 8.70488 7.00607 8.90606 6.38863L10.6572 1.01423C10.8071 0.554095 11.458 0.554093 11.608 1.01423Z" fill="#E5E5E5" stroke="black"/>
</svg>
