<svg width="14" height="14" viewBox="0 0 14 14" fill="none" xmlns="http://www.w3.org/2000/svg">
<g clip-path="url(#clip0_3610_792)">
<path d="M5.09973 7.7237C5.09973 7.54833 4.95748 7.40625 4.78196 7.40625H3.67307C3.49775 7.40625 3.35547 7.54833 3.35547 7.7237V8.83246C3.35547 9.00806 3.49775 9.1502 3.67307 9.1502H4.78196C4.95748 9.1502 5.09973 9.00806 5.09973 8.83246V7.7237Z" fill="#C4CACF"/>
<path d="M7.87302 7.7237C7.87302 7.54833 7.73074 7.40625 7.55557 7.40625H6.44651C6.27119 7.40625 6.12891 7.54833 6.12891 7.7237V8.83246C6.12891 9.00806 6.27119 9.1502 6.44651 9.1502H7.55557C7.73074 9.1502 7.87302 9.00806 7.87302 8.83246V7.7237Z" fill="#C4CACF"/>
<path d="M10.6466 7.7237C10.6466 7.54833 10.5043 7.40625 10.329 7.40625H9.22011C9.04459 7.40625 8.90234 7.54833 8.90234 7.7237V8.83246C8.90234 9.00806 9.04459 9.1502 9.22011 9.1502H10.329C10.5043 9.1502 10.6466 9.00806 10.6466 8.83246V7.7237Z" fill="#C4CACF"/>
<path d="M5.09973 10.4954C5.09973 10.3197 4.95748 10.1777 4.78196 10.1777H3.67307C3.49775 10.1777 3.35547 10.3197 3.35547 10.4954V11.6039C3.35547 11.7794 3.49775 11.9215 3.67307 11.9215H4.78196C4.95748 11.9215 5.09973 11.7794 5.09973 11.6039V10.4954Z" fill="#C4CACF"/>
<path d="M7.87302 10.4954C7.87302 10.3197 7.73074 10.1777 7.55557 10.1777H6.44651C6.27119 10.1777 6.12891 10.3197 6.12891 10.4954V11.6039C6.12891 11.7794 6.27119 11.9215 6.44651 11.9215H7.55557C7.73074 11.9215 7.87302 11.7794 7.87302 11.6039V10.4954Z" fill="#C4CACF"/>
<path d="M10.6466 10.4954C10.6466 10.3197 10.5043 10.1777 10.3292 10.1777H9.22011C9.04459 10.1777 8.90234 10.3197 8.90234 10.4954V11.6039C8.90234 11.7794 9.04459 11.9215 9.22011 11.9215H10.3292C10.5043 11.9215 10.6466 11.7794 10.6466 11.6039V10.4954Z" fill="#C4CACF"/>
<path d="M12.6274 1.55881V3.25234C12.6274 4.0178 12.0064 4.63464 11.2411 4.63464H10.3665C9.60113 4.63464 8.97193 4.0178 8.97193 3.25234V1.55273H5.0302V3.25234C5.0302 4.0178 4.40103 4.63464 3.63574 4.63464H2.76105C1.99573 4.63464 1.37479 4.0178 1.37479 3.25234V1.55881C0.705894 1.57898 0.15625 2.13246 0.15625 2.81277V12.7377C0.15625 13.4308 0.718026 14 1.41113 14H12.591C13.2831 14 13.8459 13.4296 13.8459 12.7377V2.81277C13.8459 2.13246 13.2963 1.57898 12.6274 1.55881ZM12.2212 12.1196C12.2212 12.4191 11.9783 12.6621 11.6787 12.6621H2.29956C1.99992 12.6621 1.75706 12.4191 1.75706 12.1196V6.99305C1.75706 6.69341 1.99989 6.45041 2.29956 6.45041H11.6786C11.9783 6.45041 12.2212 6.69341 12.2212 6.99305L12.2212 12.1196Z" fill="#C4CACF"/>
<path d="M2.76061 3.72677H3.62564C3.8882 3.72677 4.10109 3.5142 4.10109 3.25163V0.475307C4.10109 0.212717 3.8882 0 3.62564 0H2.76061C2.49802 0 2.28516 0.212717 2.28516 0.475307V3.25163C2.28516 3.5142 2.49802 3.72677 2.76061 3.72677Z" fill="#C4CACF"/>
<path d="M10.3543 3.72677H11.2194C11.4818 3.72677 11.6946 3.5142 11.6946 3.25163V0.475307C11.6947 0.212717 11.4818 0 11.2194 0H10.3543C10.0918 0 9.87891 0.212717 9.87891 0.475307V3.25163C9.87891 3.5142 10.0918 3.72677 10.3543 3.72677Z" fill="#C4CACF"/>
</g>
<defs>
<clipPath id="clip0_3610_792">
<rect width="14" height="14" fill="white"/>
</clipPath>
</defs>
</svg>
