<svg width="14" height="14" viewBox="0 0 14 14" fill="none" xmlns="http://www.w3.org/2000/svg">
<g clip-path="url(#clip0_3610_786)">
<path d="M7.00107 5.09082C8.05426 5.09082 8.91016 5.94672 8.91016 6.99991C8.91016 8.0531 8.05426 8.909 7.00107 8.909C5.94788 8.909 5.09198 8.0531 5.09198 6.99991C5.09198 5.94672 5.94791 5.09082 7.00107 5.09082Z" fill="#C4CACF"/>
<path d="M6.99998 2.22705C10.1818 2.22705 12.8991 4.20612 14 6.99978C12.8991 9.79341 10.1818 11.7725 6.99998 11.7725C3.81499 11.7725 1.10089 9.79341 -3.06875e-05 6.99978C1.10089 4.20612 3.81499 2.22705 6.99998 2.22705ZM6.99998 10.1816C8.75635 10.1816 10.1818 8.75612 10.1818 6.99975C10.1818 5.24339 8.75635 3.81795 6.99998 3.81795C5.24362 3.81795 3.81815 5.24342 3.81815 6.99978C3.81815 8.75615 5.24362 10.1816 6.99998 10.1816Z" fill="#C4CACF"/>
</g>
<defs>
<clipPath id="clip0_3610_786">
<rect width="14" height="14" fill="white" transform="matrix(-1 -3.55949e-08 -3.55949e-08 1 14 0)"/>
</clipPath>
</defs>
</svg>
